<svg xmlns="http://www.w3.org/2000/svg" viewBox="0 0 960 540" role="img" aria-label="CAAD logo">
  <defs>
    <style>
      .ink{fill:#1e2f4f}
      .alert{fill:#c0392b}
      .muted{fill:#93a4c5}
      .stroke{stroke:#1e2f4f;stroke-width:10;stroke-linecap:round;stroke-linejoin:round;fill:none}
    </style>
  </defs>
  <rect width="960" height="540" fill="#ffffff"/>
  <g transform="translate(120 60)">
    <g transform="translate(0 40)">
      <rect x="0" y="80" width="220" height="90" rx="18" fill="#f7f7fb" stroke="#1e2f4f" stroke-width="6"/>
      <rect x="30" y="40" width="140" height="60" rx="10" fill="#f7f7fb" stroke="#1e2f4f" stroke-width="6"/>
      <rect x="18" y="110" width="184" height="18" fill="#c0392b"/>
      <rect x="170" y="60" width="30" height="20" fill="#c0392b"/>
      <rect x="60" y="60" width="30" height="20" fill="#1e2f4f"/>
      <rect x="110" y="60" width="30" height="20" fill="#1e2f4f"/>
      <circle cx="50" cy="180" r="18" fill="#1e2f4f"/>
      <circle cx="170" cy="180" r="18" fill="#1e2f4f"/>
      <rect x="140" y="120" width="30" height="30" fill="#c0392b"/>
      <rect x="147" y="113" width="16" height="44" fill="#c0392b"/>
    </g>
    <g transform="translate(460 40)">
      <rect x="0" y="80" width="240" height="90" rx="18" fill="#f7f7fb" stroke="#1e2f4f" stroke-width="6"/>
      <rect x="30" y="40" width="150" height="60" rx="10" fill="#f7f7fb" stroke="#1e2f4f" stroke-width="6"/>
      <rect x="10" y="100" width="220" height="16" fill="#c0392b"/>
      <rect x="180" y="50" width="50" height="30" fill="#1e2f4f"/>
      <rect x="50" y="60" width="30" height="20" fill="#1e2f4f"/>
      <rect x="100" y="60" width="30" height="20" fill="#1e2f4f"/>
      <circle cx="60" cy="180" r="18" fill="#1e2f4f"/>
      <circle cx="190" cy="180" r="18" fill="#1e2f4f"/>
      <rect x="170" y="20" width="60" height="20" fill="#c0392b"/>
    </g>
    <g transform="translate(340 0)">
      <path class="stroke" d="M40 40v-20"/>
      <circle cx="40" cy="30" r="12" class="ink"/>
      <path class="stroke" d="M10 20c10-14 60-14 70 0"/>
      <path class="stroke" d="M-5 5c18-24 94-24 112 0"/>
    </g>
    <g transform="translate(80 280)">
      <text x="0" y="120" font-family="Arial, sans-serif" font-weight="700" font-size="140" fill="#1e2f4f">C.A.</text>
      <text x="270" y="120" font-family="Arial, sans-serif" font-weight="700" font-size="140" fill="#c0392b">A</text>
      <text x="355" y="120" font-family="Arial, sans-serif" font-weight="700" font-size="140" fill="#1e2f4f">.D</text>
      <g transform="translate(300 42)">
        <circle cx="60" cy="60" r="6" class="alert"/>
        <circle cx="20" cy="86" r="6" class="alert"/>
        <circle cx="96" cy="86" r="6" class="alert"/>
        <path d="M60 60v30" stroke="#c0392b" stroke-width="6" stroke-linecap="round"/>
        <path d="M60 78h36" stroke="#c0392b" stroke-width="6" stroke-linecap="round"/>
        <path d="M60 78h-36" stroke="#c0392b" stroke-width="6" stroke-linecap="round"/>
      </g>
      <text x="10" y="170" font-family="Arial, sans-serif" font-size="28" letter-spacing="4" class="ink">COMPUTER AIDED AGENT DISPATCH</text>
    </g>
  </g>
</svg>
